<svg xmlns="http://www.w3.org/2000/svg" xmlns:xlink="http://www.w3.org/1999/xlink" width="67" height="31" viewBox="0 0 67 31">
    <defs>
        <path id="a" d="M.012.074h48.59v15.405H.012z"/>
    </defs>
    <g fill="none" fill-rule="evenodd">
        <path fill="#0A0B09" d="M66.117 16.433l.335-2.925-6.753.451-2.934.196-3.295 8.555-1.41-8.242-3.146.208 2.468 12.233 3.318-.21 4.915-11.988-1.318 11.76 6.717-.43.312-2.715-3.573.231.237-2.086 3.577-.233.335-2.924-3.58.235.212-1.878 3.583-.238"/>
        <g transform="translate(-.014 14.618)">
            <mask id="b" fill="#fff">
                <use xlink:href="#a"/>
            </mask>
            <path fill="#0A0B09" d="M44.328 12.732l2.935-.186L48.602.074l-2.95.194-1.324 12.464M31.84 9.2l1.641-4.08.825 3.924-2.466.157zM17.94 10.248c.975-.405 1.727-.908 2.266-1.61a4.43 4.43 0 0 0 .635-1.153l-.598 6.23-2.303-3.467zm-.655-2.645c-.417.224-1.168.37-2.217.436l.277-2.964c1.26-.081 1.983-.006 2.353.212.29.173.408.532.357 1.076-.055.584-.312.997-.77 1.24zm-5.34 2.655l-2.802.176c-.476.643-1.03 1.239-1.64 1.563-.433.23-.888.368-1.364.398-.76.047-1.394-.11-1.902-.483-.418-.311-.72-.742-.908-1.297a3.579 3.579 0 0 1-.12-1.792c.175-.831.594-1.545 1.257-2.143.664-.598 1.427-.925 2.292-.98.563-.036 1.062.039 1.493.27.507.271.916.782 1.24 1.375l2.74-.174-.286 3.087zM45.155.302l-7.793.514-.298 2.902 2.314-.15-.923 8.886L35.123.967l-2.473.162-5.71 12.176.213-2.163-3.771.238.2-2.065 3.776-.24.285-2.893-3.78.242.181-1.859 3.782-.244.285-2.894-6.732.438-.266 2.766a3.316 3.316 0 0 0-.128-.486c-.233-.65-.658-1.174-1.285-1.494-.734-.375-1.731-.56-2.996-.478l-4.04.262-.293 3.194c-.366-.563-.605-1.061-.982-1.475-.566-.62-1.303-1.055-2.163-1.303a6.394 6.394 0 0 0-2.184-.213c-1.383.09-2.629.51-3.724 1.259A7.63 7.63 0 0 0 .976 6.479C.434 7.44.118 8.425.03 9.434c-.167 1.918.363 3.45 1.592 4.596 1.144 1.07 2.568 1.551 4.272 1.447 1.45-.09 2.825-.626 4.03-1.606.736-.601 1.392-1.307 1.882-2.112l-.28 3.025 2.927-.182.364-3.88 2.012 3.734 3.75-.234 6.058-.378.24-.015 3.053-.191.83-1.696 4.09-.258.443 1.617 3.347-.21v-.001l2.68-.17 1.003-9.545 2.526-.165.306-2.908z" mask="url(#b)"/>
        </g>
        <path fill="#0A0B09" d="M14.72 7.778l.868 3.902-2.476.163 1.609-4.065zm18.54.807a3.654 3.654 0 0 1 1.345-2.535c.69-.579 1.45-.896 2.281-.953.43-.029.851.085 1.272.26.344.146.726.453 1.153.836l3.242-.22-.128 1.244-6.552.442-.25 2.485 3.549-.238c-.47.65-.994 1.169-1.566 1.484a3.312 3.312 0 0 1-1.38.424c-.886.06-1.623-.207-2.21-.818-.601-.626-.854-1.427-.756-2.41zm12.397-4.18c1.27-.086 2.003-.015 2.373.204.29.173.407.534.35 1.082-.063.588-.328 1.005-.792 1.253-.422.227-1.185.377-2.242.45l.31-2.988zm-33.585 9.96l4.108-.268.443 1.814 2.768-.18.594-.04 2.544-.165.658-6.87 3.906 6.572 2.594-.17.414-4.188c.324.956.69 1.804 1.395 2.523 1.122 1.146 2.585 1.66 4.355 1.544 1.941-.128 3.592-.845 4.85-2.144.507-.527.845-1.12 1.335-1.801l-.34 3.275 2.952-.194.416-3.975 1.99 3.815 3.78-.25-2.613-4.026c.987-.413 1.755-.964 2.305-1.673.55-.71.88-1.574.99-2.603.033-.312.042-.604.03-.879l1.635 4.462-.498 4.603 2.954-.197.503-4.606L60.67.601l-3.216.224-2.388 4.75-1.337-4.491-3.344.232.452 1.234a2.619 2.619 0 0 0-.758-.574c-.736-.374-1.742-.523-3.016-.434l-4.084.281-.341 3.328c-.191-.192-.215-.39-.317-.577a5.31 5.31 0 0 0-.556-.785 6.86 6.86 0 0 0-.91-.813c-1.054-.748-2.312-1.072-3.764-.972-1.889.13-3.547.913-4.902 2.345-.748.793-1.189 1.645-1.7 2.584l.418-4.28-2.963.202-.67 6.915-3.93-6.6-2.806.19-1.024 10.877L16.33 3.646l-2.484.168-5.919 12.66 3.309-.214.836-1.894z"/>
    </g>
</svg>
